<?xml version="1.0" encoding="UTF-8" standalone="no"?>
<svg xmlns="http://www.w3.org/2000/svg" viewBox="0 0 800 600">
  <!-- Background -->
  <rect width="800" height="600" fill="#e0e0e0" />
  
  <!-- Bone Structure -->
  <path d="M200,200 L300,200 L300,400 L200,400 Z" fill="#f5f5f5" stroke="#bdbdbd" stroke-width="3" />
  
  <!-- Prosthesis -->
  <path d="M500,200 L600,200 L600,400 L500,400 Z" fill="#bbdefb" stroke="#3f51b5" stroke-width="3" />
  
  <!-- Integration Zone -->
  <path d="M300,200 L500,200 L500,400 L300,400 Z" fill="#e8f5e9" stroke="#4caf50" stroke-width="2" />
  
  <!-- Cells and Growth Factors -->
  <circle cx="350" cy="250" r="15" fill="#81c784" stroke="#4caf50" stroke-width="2" />
  <circle cx="380" cy="280" r="15" fill="#81c784" stroke="#4caf50" stroke-width="2" />
  <circle cx="410" cy="250" r="15" fill="#81c784" stroke="#4caf50" stroke-width="2" />
  <circle cx="440" cy="280" r="15" fill="#81c784" stroke="#4caf50" stroke-width="2" />
  
  <circle cx="350" cy="350" r="15" fill="#81c784" stroke="#4caf50" stroke-width="2" />
  <circle cx="380" cy="320" r="15" fill="#81c784" stroke="#4caf50" stroke-width="2" />
  <circle cx="410" cy="350" r="15" fill="#81c784" stroke="#4caf50" stroke-width="2" />
  <circle cx="440" cy="320" r="15" fill="#81c784" stroke="#4caf50" stroke-width="2" />
  
  <!-- Scaffold Structure -->
  <line x1="320" y1="220" x2="480" y2="220" stroke="#4caf50" stroke-width="1" stroke-dasharray="5,5" />
  <line x1="320" y1="240" x2="480" y2="240" stroke="#4caf50" stroke-width="1" stroke-dasharray="5,5" />
  <line x1="320" y1="260" x2="480" y2="260" stroke="#4caf50" stroke-width="1" stroke-dasharray="5,5" />
  <line x1="320" y1="280" x2="480" y2="280" stroke="#4caf50" stroke-width="1" stroke-dasharray="5,5" />
  <line x1="320" y1="300" x2="480" y2="300" stroke="#4caf50" stroke-width="1" stroke-dasharray="5,5" />
  <line x1="320" y1="320" x2="480" y2="320" stroke="#4caf50" stroke-width="1" stroke-dasharray="5,5" />
  <line x1="320" y1="340" x2="480" y2="340" stroke="#4caf50" stroke-width="1" stroke-dasharray="5,5" />
  <line x1="320" y1="360" x2="480" y2="360" stroke="#4caf50" stroke-width="1" stroke-dasharray="5,5" />
  <line x1="320" y1="380" x2="480" y2="380" stroke="#4caf50" stroke-width="1" stroke-dasharray="5,5" />
  
  <line x1="320" y1="220" x2="320" y2="380" stroke="#4caf50" stroke-width="1" stroke-dasharray="5,5" />
  <line x1="340" y1="220" x2="340" y2="380" stroke="#4caf50" stroke-width="1" stroke-dasharray="5,5" />
  <line x1="360" y1="220" x2="360" y2="380" stroke="#4caf50" stroke-width="1" stroke-dasharray="5,5" />
  <line x1="380" y1="220" x2="380" y2="380" stroke="#4caf50" stroke-width="1" stroke-dasharray="5,5" />
  <line x1="400" y1="220" x2="400" y2="380" stroke="#4caf50" stroke-width="1" stroke-dasharray="5,5" />
  <line x1="420" y1="220" x2="420" y2="380" stroke="#4caf50" stroke-width="1" stroke-dasharray="5,5" />
  <line x1="440" y1="220" x2="440" y2="380" stroke="#4caf50" stroke-width="1" stroke-dasharray="5,5" />
  <line x1="460" y1="220" x2="460" y2="380" stroke="#4caf50" stroke-width="1" stroke-dasharray="5,5" />
  <line x1="480" y1="220" x2="480" y2="380" stroke="#4caf50" stroke-width="1" stroke-dasharray="5,5" />
  
  <!-- Growth Arrows -->
  <path d="M330,300 L350,280 L370,300" fill="none" stroke="#4caf50" stroke-width="2" />
  <path d="M430,300 L450,280 L470,300" fill="none" stroke="#4caf50" stroke-width="2" />
  
  <!-- Labels -->
  <text x="400" y="100" font-family="Arial" font-size="24" text-anchor="middle" fill="#3f51b5">Regenerative Approaches for Hip Prostheses</text>
  
  <text x="250" y="180" font-family="Arial" font-size="14" text-anchor="middle" fill="#000">Host Bone</text>
  <line x1="250" y1="185" x2="250" y2="200" stroke="#000" stroke-width="1" />
  
  <text x="550" y="180" font-family="Arial" font-size="14" text-anchor="middle" fill="#000">Prosthesis</text>
  <line x1="550" y1="185" x2="550" y2="200" stroke="#000" stroke-width="1" />
  
  <text x="400" y="180" font-family="Arial" font-size="14" text-anchor="middle" fill="#000">Integration Zone</text>
  <line x1="400" y1="185" x2="400" y2="200" stroke="#000" stroke-width="1" />
  
  <text x="350" y="230" font-family="Arial" font-size="12" text-anchor="middle" fill="#000">Stem Cells</text>
  
  <text x="450" y="230" font-family="Arial" font-size="12" text-anchor="middle" fill="#000">Growth Factors</text>
  
  <text x="400" y="480" font-family="Arial" font-size="16" text-anchor="middle" fill="#000">Tissue Engineering and Bioactive Integration</text>
</svg>
