<?xml version="1.0" encoding="UTF-8"?>
<svg width="1440" height="800" viewBox="0 0 1440 800" fill="none" xmlns="http://www.w3.org/2000/svg">
  <!-- Background pattern for hero section -->
  <rect width="1440" height="800" fill="#F1F5F9"/>
  
  <!-- Abstract shapes -->
  <circle cx="100" cy="100" r="300" fill="#3B82F6" fill-opacity="0.03"/>
  <circle cx="1300" cy="600" r="400" fill="#8B5CF6" fill-opacity="0.04"/>
  <circle cx="700" cy="200" r="200" fill="#3B82F6" fill-opacity="0.02"/>
  
  <!-- Grid pattern -->
  <path d="M0 100H1440" stroke="#E2E8F0" stroke-width="1"/>
  <path d="M0 200H1440" stroke="#E2E8F0" stroke-width="1"/>
  <path d="M0 300H1440" stroke="#E2E8F0" stroke-width="1"/>
  <path d="M0 400H1440" stroke="#E2E8F0" stroke-width="1"/>
  <path d="M0 500H1440" stroke="#E2E8F0" stroke-width="1"/>
  <path d="M0 600H1440" stroke="#E2E8F0" stroke-width="1"/>
  <path d="M0 700H1440" stroke="#E2E8F0" stroke-width="1"/>
  
  <path d="M100 0V800" stroke="#E2E8F0" stroke-width="1"/>
  <path d="M200 0V800" stroke="#E2E8F0" stroke-width="1"/>
  <path d="M300 0V800" stroke="#E2E8F0" stroke-width="1"/>
  <path d="M400 0V800" stroke="#E2E8F0" stroke-width="1"/>
  <path d="M500 0V800" stroke="#E2E8F0" stroke-width="1"/>
  <path d="M600 0V800" stroke="#E2E8F0" stroke-width="1"/>
  <path d="M700 0V800" stroke="#E2E8F0" stroke-width="1"/>
  <path d="M800 0V800" stroke="#E2E8F0" stroke-width="1"/>
  <path d="M900 0V800" stroke="#E2E8F0" stroke-width="1"/>
  <path d="M1000 0V800" stroke="#E2E8F0" stroke-width="1"/>
  <path d="M1100 0V800" stroke="#E2E8F0" stroke-width="1"/>
  <path d="M1200 0V800" stroke="#E2E8F0" stroke-width="1"/>
  <path d="M1300 0V800" stroke="#E2E8F0" stroke-width="1"/>
  <path d="M1400 0V800" stroke="#E2E8F0" stroke-width="1"/>
  
  <!-- Decorative elements -->
  <circle cx="200" cy="200" r="5" fill="#3B82F6" fill-opacity="0.3"/>
  <circle cx="400" cy="300" r="5" fill="#3B82F6" fill-opacity="0.3"/>
  <circle cx="600" cy="400" r="5" fill="#3B82F6" fill-opacity="0.3"/>
  <circle cx="800" cy="500" r="5" fill="#3B82F6" fill-opacity="0.3"/>
  <circle cx="1000" cy="600" r="5" fill="#3B82F6" fill-opacity="0.3"/>
  <circle cx="1200" cy="700" r="5" fill="#3B82F6" fill-opacity="0.3"/>
  
  <circle cx="300" cy="700" r="5" fill="#8B5CF6" fill-opacity="0.3"/>
  <circle cx="500" cy="600" r="5" fill="#8B5CF6" fill-opacity="0.3"/>
  <circle cx="700" cy="500" r="5" fill="#8B5CF6" fill-opacity="0.3"/>
  <circle cx="900" cy="400" r="5" fill="#8B5CF6" fill-opacity="0.3"/>
  <circle cx="1100" cy="300" r="5" fill="#8B5CF6" fill-opacity="0.3"/>
  <circle cx="1300" cy="200" r="5" fill="#8B5CF6" fill-opacity="0.3"/>
</svg>
